<svg id="visual" viewBox="0 0 900 600" width="900" height="600" xmlns="http://www.w3.org/2000/svg" xmlns:xlink="http://www.w3.org/1999/xlink" version="1.1"><rect x="0" y="0" width="900" height="600" fill="#001220"></rect><defs><linearGradient id="grad1_0" x1="33.3%" y1="0%" x2="100%" y2="100%"><stop offset="20%" stop-color="#001220" stop-opacity="1"></stop><stop offset="80%" stop-color="#001220" stop-opacity="1"></stop></linearGradient></defs><defs><linearGradient id="grad2_0" x1="0%" y1="0%" x2="66.7%" y2="100%"><stop offset="20%" stop-color="#001220" stop-opacity="1"></stop><stop offset="80%" stop-color="#001220" stop-opacity="1"></stop></linearGradient></defs><g transform="translate(900, 0)"><path d="M0 270.4C-12.3 247.2 -24.7 224 -38.2 216.7C-51.7 209.3 -66.5 217.8 -78.7 216.1C-90.8 214.4 -100.4 202.5 -114.5 198.3C-128.6 194.1 -147.1 197.5 -163.9 195.3C-180.8 193.1 -196 185.3 -207.2 173.8C-218.3 162.3 -225.4 147.1 -226 130.5C-226.7 113.9 -220.8 95.7 -223.6 81.4C-226.5 67.1 -237.9 56.5 -247.2 43.6C-256.4 30.6 -263.4 15.3 -270.4 0L0 0Z" fill="#02B502"></path></g><g transform="translate(0, 600)"><path d="M0 -270.4C13.8 -258.8 27.7 -247.3 43.4 -246.2C59.1 -245.2 76.8 -254.6 92.5 -254.1C108.2 -253.6 122 -243 133 -230.4C144 -217.7 152 -202.8 158.8 -189.2C165.5 -175.6 170.9 -163.2 184.6 -154.9C198.3 -146.6 220.3 -142.5 223.4 -129C226.6 -115.5 210.8 -92.6 213.3 -77.6C215.8 -62.7 236.6 -55.6 249.2 -43.9C261.7 -32.3 266.1 -16.2 270.4 0L0 0Z" fill="#02B502"></path></g></svg>